<?xml version="1.0" encoding="utf-8"?>
<!-- Generator: Adobe Illustrator 19.0.0, SVG Export Plug-In . SVG Version: 6.00 Build 0)  -->
<svg version="1.1" id="Layer_1" xmlns="http://www.w3.org/2000/svg" xmlns:xlink="http://www.w3.org/1999/xlink" x="0px" y="0px"
	 viewBox="0 0 243 121.1" style="enable-background:new 0 0 243 121.1;" xml:space="preserve">
<metadata><?xpacket begin="﻿" id="W5M0MpCehiHzreSzNTczkc9d"?>
<x:xmpmeta xmlns:x="adobe:ns:meta/" x:xmptk="Adobe XMP Core 5.6-c067 79.157747, 2015/03/30-23:40:42        ">
   <rdf:RDF xmlns:rdf="http://www.w3.org/1999/02/22-rdf-syntax-ns#">
      <rdf:Description rdf:about=""/>
   </rdf:RDF>
</x:xmpmeta>
                                                                                                    
                                                                                                    
                                                                                                    
                                                                                                    
                                                                                                    
                                                                                                    
                                                                                                    
                                                                                                    
                                                                                                    
                                                                                                    
                                                                                                    
                                                                                                    
                                                                                                    
                                                                                                    
                                                                                                    
                                                                                                    
                                                                                                    
                                                                                                    
                                                                                                    
                                                                                                    
                           
<?xpacket end="w"?></metadata>
<style type="text/css">
	.st0{fill:none;stroke:#000000;stroke-width:1.417;stroke-linecap:round;stroke-linejoin:round;}
</style>
<g>
	<g>
		<path d="M0,113.5c0-4.3,3.5-7.6,8-7.6c1.1,0,2.5,0.3,3.7,0.7v3.1c-0.6-0.3-2-1-3.9-1c-2.8,0-4.9,2.1-4.9,4.9c0,2.9,2.1,4.9,5,4.9
			c0.4,0,0.8,0,1.2-0.1v-2.8H6.3v-2.7h5.6v7.5c-1.3,0.6-2.6,0.9-3.9,0.9C3.4,121.1,0,117.9,0,113.5z"/>
		<path d="M29.5,120.8l-1.7-4H23l-1.5,4h-3.1l6.1-14.8h1.7l6.1,14.8H29.5z M24.2,114.2h2.5l-1.2-3.3L24.2,114.2z"/>
		<path d="M42.3,120.8L36.4,106h3l3.7,9.5l3.6-9.5h3l-5.9,14.8H42.3z"/>
		<path d="M56.4,120.8V106h2.8v14.8H56.4z"/>
		<path d="M78.2,120.8l-7.9-9.8v9.8h-2.8V106h2.2l7.9,9.8V106h2.8v14.8H78.2z"/>
		<path d="M104.1,120.8L98.3,106h3l3.7,9.5l3.6-9.5h3l-5.9,14.8H104.1z"/>
		<path d="M126.5,120.8l-1.7-4h-4.8l-1.5,4h-3.1l6.1-14.8h1.7l6.1,14.8H126.5z M121.3,114.2h2.5l-1.2-3.3L121.3,114.2z"/>
		<path d="M146.8,120.8l-7.9-9.8v9.8h-2.8V106h2.2l7.9,9.8V106h2.8v14.8H146.8z"/>
		<path d="M176.2,120.8l-0.1-0.3c-0.9-1.9-2.5-5-2.9-5.5c-0.3-0.4-0.8-0.5-1.4-0.5h-1.1v6.2H168V106h4.2c3.5,0,5.3,1.8,5.3,4.3
			c0,1.5-0.6,2.5-1.8,3.4c0.8,0.9,3.3,5.9,3.6,6.5l0.3,0.6H176.2z M172.1,112c1.4,0,2.5-0.4,2.5-1.7c0-1.1-0.8-1.6-2.4-1.6h-1.3v3.3
			H172.1z"/>
		<path d="M185,113.4c0-4.3,3.5-7.6,7.8-7.6c4.3,0,7.8,3.3,7.8,7.6c0,4.2-3.4,7.6-7.8,7.6C188.3,121,185,117.7,185,113.4z
			 M187.9,113.4c0,2.7,2.2,4.9,4.9,4.9c2.8,0,4.9-2.3,4.9-4.9c0-2.5-2.1-4.9-4.9-4.9C190.1,108.6,187.9,110.8,187.9,113.4z"/>
		<path d="M207.3,113.4c0-4.3,3.5-7.6,7.8-7.6c4.3,0,7.8,3.3,7.8,7.6c0,4.2-3.4,7.6-7.8,7.6C210.6,121,207.3,117.7,207.3,113.4z
			 M210.2,113.4c0,2.7,2.2,4.9,4.9,4.9c2.8,0,4.9-2.3,4.9-4.9c0-2.5-2.1-4.9-4.9-4.9C212.4,108.6,210.2,110.8,210.2,113.4z"/>
		<path d="M230.5,120.9V106h4.5c5.1,0,7.9,3.1,7.9,7.5c0,4.3-3,7.4-7.8,7.4H230.5z M234.9,118.2c3.1,0,5.2-1.8,5.2-4.8
			c0-2.9-2-4.8-5.1-4.8h-1.6v9.6H234.9z"/>
	</g>
	<g>
		<polygon class="st0" points="134.5,0.8 148.8,53.1 134.3,85.9 87.4,67.8 101.1,34.6 		"/>
	</g>
	<line class="st0" x1="101" y1="35.8" x2="149.2" y2="52.4"/>
	<polyline class="st0" points="143.5,71.7 119,29.6 87.6,77.9 119.8,34.4 133.8,85.5 	"/>
	<polyline class="st0" points="155.5,46.2 143.8,72 87.6,77.9 102.1,44.3 	"/>
	<g>
		<line class="st0" x1="120.9" y1="32.9" x2="133.4" y2="0.7"/>
	</g>
	<polygon class="st0" points="102.7,42.9 155.9,44.8 125.2,11.8 	"/>
	<path class="st0" d="M100.3,34.6"/>
	<path class="st0" d="M116.2,32.5"/>
</g>
</svg>
